<mxfile host="app.diagrams.net" modified="2023-08-22T13:12:22.994Z" agent="Mozilla/5.0 (X11; Ubuntu; Linux x86_64; rv:109.0) Gecko/20100101 Firefox/116.0" version="21.2.7" etag="8W7wtAOsNJ0ODbpFOOZZ" type="github">
  <diagram name="Page-1" id="SqnJS9L8xjwoTWoNPR0q">
    <mxGraphModel>
      <root>
        <mxCell id="0" />
        <mxCell id="1" parent="0" />
      </root>
    </mxGraphModel>
  </diagram>
</mxfile>
